<svg width="180" height="180" viewBox="0 0 180 180" fill="none" xmlns="http://www.w3.org/2000/svg">
  <!-- Trello-style background -->
  <rect width="180" height="180" rx="40" fill="#0079BF"/>
  
  <!-- Main board -->
  <rect x="20" y="30" width="140" height="120" rx="15" fill="white"/>
  
  <!-- Three columns (Trello style) -->
  <!-- Column 1 - To Do -->
  <rect x="30" y="50" width="35" height="80" rx="5" fill="#E2E8F0"/>
  <rect x="35" y="60" width="25" height="12" rx="3" fill="#3B82F6"/>
  <rect x="35" y="75" width="25" height="12" rx="3" fill="#3B82F6"/>
  <rect x="35" y="90" width="25" height="12" rx="3" fill="#3B82F6"/>
  <rect x="35" y="105" width="25" height="12" rx="3" fill="#3B82F6"/>
  
  <!-- Column 2 - In Progress -->
  <rect x="72" y="50" width="35" height="80" rx="5" fill="#E2E8F0"/>
  <rect x="77" y="60" width="25" height="12" rx="3" fill="#F59E0B"/>
  <rect x="77" y="75" width="25" height="12" rx="3" fill="#F59E0B"/>
  <rect x="77" y="90" width="25" height="12" rx="3" fill="#F59E0B"/>
  
  <!-- Column 3 - Done -->
  <rect x="115" y="50" width="35" height="80" rx="5" fill="#E2E8F0"/>
  <rect x="120" y="60" width="25" height="12" rx="3" fill="#10B981"/>
  <rect x="120" y="75" width="25" height="12" rx="3" fill="#10B981"/>
</svg>
